<?xml version="1.0" standalone="no"?>
<!DOCTYPE svg PUBLIC "-//W3C//DTD SVG 20010904//EN"
 "http://www.w3.org/TR/2001/REC-SVG-20010904/DTD/svg10.dtd">
<svg version="1.0" xmlns="http://www.w3.org/2000/svg"
 width="775.473851pt" height="312.210991pt" viewBox="0 0 775.473851 312.210991"
 preserveAspectRatio="xMidYMid meet">
<metadata>
Created by potrace 1.12, written by Peter Selinger 2001-2015
</metadata>
<g transform="translate(-25.493881,333.417960) scale(0.100000,-0.100000)"
fill="#000000" stroke="none">
<path d="M7695 3305 c-112 -48 -320 -92 -460 -96 -33 -2 -107 1 -165 5 -80 6
-127 4 -195 -8 -49 -9 -137 -19 -195 -23 -80 -4 -122 -12 -175 -33 -354 -138
-788 -220 -1161 -220 l-106 0 -126 -88 c-242 -168 -564 -366 -807 -498 -53
-29 -60 -36 -59 -62 1 -22 -5 -33 -27 -46 -29 -17 -34 -31 -23 -60 4 -11 19
-16 48 -16 33 0 66 14 161 68 155 89 302 177 434 263 58 37 107 66 109 64 6
-5 -58 -115 -66 -115 -4 0 -13 -15 -20 -32 -7 -18 -17 -40 -22 -49 -6 -11 0
-18 21 -28 16 -7 36 -11 43 -8 18 7 96 -13 96 -24 0 -5 8 -9 18 -9 10 0 23 -5
30 -12 8 -8 14 -5 21 13 5 13 28 50 50 82 23 32 41 61 41 65 0 4 22 33 49 66
27 32 59 78 72 103 l23 45 67 -7 c59 -6 74 -4 113 16 43 21 47 21 64 6 45 -41
274 -50 371 -16 45 16 60 17 87 7 25 -9 39 -8 71 5 22 8 69 21 104 27 92 17
256 76 293 105 17 14 44 36 59 48 36 28 61 54 96 96 28 34 29 35 54 18 41 -26
113 -22 198 13 40 17 81 37 90 46 16 14 20 14 43 -2 15 -9 30 -23 34 -30 6
-10 37 -15 115 -18 l107 -3 1 36 c1 20 1 39 0 44 -2 13 83 -5 96 -20 9 -12 17
-4 45 41 35 58 47 66 68 41 9 -11 35 -15 106 -15 l94 0 16 33 c24 50 71 66
176 60 80 -5 87 -4 97 15 7 13 17 19 26 16 11 -5 15 1 15 17 -1 20 -14 31 -78
61 -108 53 -139 55 -237 13z m-1311 -342 c-13 -14 -27 -36 -30 -47 -3 -12 -25
-36 -49 -54 -36 -28 -48 -32 -81 -27 -35 5 -85 -3 -206 -33 -46 -12 -157 -7
-171 7 -6 6 -19 11 -29 11 -10 0 -18 5 -18 10 0 6 -9 10 -21 10 -11 0 -18 4
-15 9 3 4 38 12 78 15 139 14 513 98 536 121 3 3 11 5 18 5 8 0 3 -11 -12 -27z"/>
<path d="M4069 1042 c-20 -2 -31 -13 -45 -43 -10 -22 -27 -48 -39 -57 -12 -9
-24 -25 -28 -34 -3 -10 -11 -18 -17 -18 -5 0 -10 -14 -10 -30 0 -29 -6 -38
-90 -129 -34 -37 -50 -75 -50 -120 0 -30 -7 -45 -36 -74 -34 -34 -40 -36 -83
-30 -25 3 -57 12 -71 19 -35 18 -234 47 -262 38 -13 -4 -42 -6 -66 -5 -25 1
-53 -6 -67 -15 -15 -10 -25 -12 -25 -5 0 14 -47 15 -55 1 -3 -5 -28 -10 -54
-10 -34 0 -53 -5 -64 -18 -24 -26 -21 -36 5 -18 12 9 38 16 56 16 31 0 34 -2
30 -25 -4 -21 -1 -25 18 -25 19 0 24 -5 24 -24 0 -33 -17 -43 -23 -14 -4 20
-4 19 -6 -4 -1 -19 -7 -29 -18 -30 -10 0 -22 -2 -28 -3 -5 -2 -18 -3 -27 -4
-10 0 -18 -6 -18 -12 0 -15 124 -7 280 17 134 21 207 23 241 8 41 -19 93 -36
124 -41 17 -3 36 -10 43 -16 17 -13 88 -29 136 -30 31 -1 43 5 63 29 25 30 81
123 120 197 12 23 26 47 32 54 6 6 13 24 17 40 7 29 53 120 104 208 16 28 35
60 41 73 7 12 16 22 21 22 4 0 8 4 8 10 0 5 -6 8 -12 6 -53 -17 -68 -16 -68 2
0 26 -11 34 -27 21 -10 -9 -13 -8 -13 5 0 9 -7 16 -16 16 -9 0 -14 6 -11 13 9
24 -7 42 -34 39z"/>
<path d="M413 984 c-18 -14 -50 -28 -70 -31 -21 -3 -44 -10 -51 -16 -21 -17
-42 -64 -36 -81 8 -20 40 -21 48 -1 3 8 15 15 26 15 12 0 28 7 37 16 9 8 22
13 29 10 8 -3 14 -2 14 2 0 4 12 8 27 7 20 0 28 6 33 25 4 17 8 21 14 12 4 -6
18 -12 32 -12 20 0 24 5 24 29 0 24 -6 31 -31 40 -46 16 -60 14 -96 -15z"/>
<path d="M2825 471 c-17 -4 -30 -12 -30 -20 0 -10 -11 -15 -30 -16 -73 -3 -85
-5 -85 -20 0 -8 7 -15 15 -15 8 0 15 -4 15 -10 0 -20 28 -9 66 26 38 34 40 35
101 28 52 -5 65 -3 81 12 20 19 19 19 -41 20 -34 0 -75 -2 -92 -5z"/>
<path d="M2495 253 c-11 -3 -24 -9 -29 -14 -6 -5 -32 -9 -59 -9 -33 0 -46 -4
-41 -11 7 -11 32 -9 122 10 47 9 81 32 47 30 -11 -1 -29 -3 -40 -6z"/>
</g>
</svg>
